<svg height="500pt" preserveAspectRatio="xMidYMid meet" viewBox="0 0 500 500" width="500pt" xmlns="http://www.w3.org/2000/svg"><g transform="matrix(.1 0 0 -.1 0 500)"><path d="m17 3782c-16-3-17-90-17-1218v-1214h188 189l1 828c0 455 1 832 2 837 1 12 15-17 70-145 23-52 50-113 60-135s57-130 105-240c207-475 378-864 404-920 15-33 43-97 62-142l34-83h55 56l28 68c16 37 42 94 57 127s98 221 184 418c86 198 165 378 175 400 32 71 63 144 175 399 60 136 111 246 113 243 3-2 5-376 5-830v-825h206 206v1209c0 665-3 1213-7 1216-10 11-458 9-468-1-5-5-34-70-65-144-32-74-68-158-81-187-13-28-24-54-24-57s-12-31-26-63c-15-32-32-71-39-88-7-16-52-122-100-235s-93-218-100-235c-8-16-26-59-40-95s-34-83-44-105-60-138-111-258-96-215-100-210c-4 4-22 44-40 88s-40 98-50 120c-47 107-350 808-369 855-5 14-68 160-139 324l-128 299-205 1c-113 1-213 0-222-2z"/><path d="m3602 3775c-4-5-7-553-7-1217v-1208h702 703v190 190h-495c-465 0-495 1-496 18v1025c0 554-3 1007-7 1008-60 6-395 2-400-6z"/></g></svg>