<svg xmlns="http://www.w3.org/2000/svg" xmlns:xlink="http://www.w3.org/1999/xlink"><symbol viewBox="0 0 56.85 52.22" id="circular-close" xmlns="http://www.w3.org/2000/svg"><path d="M43.89 7.08l.77.83a2.69 2.69 0 0 1-1.66.95 2.34 2.34 0 0 1-1.78-.47 2.51 2.51 0 0 1-1.1-1.81A3.58 3.58 0 0 1 41 4.1a3.36 3.36 0 0 1 2-1.48 2.52 2.52 0 0 1 2 .43 2.39 2.39 0 0 1 1 1.46 2.53 2.53 0 0 1-.31 1.78l-1-.5c.43-.86.34-1.51-.26-1.94a1.43 1.43 0 0 0-1.26-.22 2.61 2.61 0 0 0-1.37 1.12 2.85 2.85 0 0 0-.66 1.7 1.46 1.46 0 0 0 .61 1.15c.71.45 1.4.28 2.14-.52zM45.3 11.9l5.09-3.71L51 9l-4.29 3.14 1.56 2.13-.8.58zM49.73 20.29a2.78 2.78 0 0 1-.48-.9 2.57 2.57 0 0 1-.14-1 2.83 2.83 0 0 1 .28-1 2.61 2.61 0 0 1 .81-.91 4.87 4.87 0 0 1 1.39-.68 3.27 3.27 0 0 1 2.51 0 2.52 2.52 0 0 1 1.39 1.56 2.49 2.49 0 0 1-.22 2.07 3.39 3.39 0 0 1-2 1.5 4.88 4.88 0 0 1-1.53.25 2.51 2.51 0 0 1-1.18-.26 2.54 2.54 0 0 1-.83-.63zm.64-2.48a1.4 1.4 0 0 0-.19 1.28 1.36 1.36 0 0 0 .9.92 2.81 2.81 0 0 0 1.82-.12 2.65 2.65 0 0 0 1.46-.95 1.44 1.44 0 0 0-.7-2.18 2.61 2.61 0 0 0-1.73.07 2.84 2.84 0 0 0-1.56.98zM52.61 24.49l.21 1.12a2.5 2.5 0 0 0-1.17.39 1.26 1.26 0 0 0-.39 1 1.58 1.58 0 0 0 .2.9.74.74 0 0 0 .62.35.76.76 0 0 0 .63-.29 5.44 5.44 0 0 0 .59-1.34 3.24 3.24 0 0 1 .79-1.4 1.5 1.5 0 0 1 1.08-.39 1.59 1.59 0 0 1 1.21.59 2.16 2.16 0 0 1 .47 1.53 2.66 2.66 0 0 1-.48 1.51 1.86 1.86 0 0 1-1.31.73l-.22-1a1.59 1.59 0 0 0 .74-.39 1.23 1.23 0 0 0 .28-.84 1.26 1.26 0 0 0-.18-.78.68.68 0 0 0-.53-.27.56.56 0 0 0-.5.27 8.3 8.3 0 0 0-.57 1.29 4 4 0 0 1-.83 1.5 1.63 1.63 0 0 1-1.14.36 1.72 1.72 0 0 1-1.34-.66 2.41 2.41 0 0 1-.49-1.67 2.53 2.53 0 0 1 .62-1.72 2.61 2.61 0 0 1 1.71-.79zM49.73 31.94l5.92 2.16-1.35 3.69-.92-.34 1-2.69-1.52-.55-.9 2.45-.88-.33.92-2.45-1.66-.61L49.3 36l-.92-.34z"/><g><path d="M13.51 45.56l-.8-.81a2.71 2.71 0 0 1 1.61-1 2.32 2.32 0 0 1 1.79.41A2.5 2.5 0 0 1 17.26 46a3.59 3.59 0 0 1-.76 2.5 3.37 3.37 0 0 1-2 1.54 2.54 2.54 0 0 1-2.05-.38 2.3 2.3 0 0 1-1-1.43 2.47 2.47 0 0 1 .25-1.79l1 .47c-.4.88-.3 1.52.32 1.93a1.45 1.45 0 0 0 1.27.19 2.67 2.67 0 0 0 1.34-1.16 2.77 2.77 0 0 0 .6-1.71 1.4 1.4 0 0 0-.67-1.16c-.65-.45-1.33-.26-2.05.56zM12 40.78l-5 3.85-.64-.84 4.2-3.25-1.64-2.09.78-.6zM7.3 32.51a2.79 2.79 0 0 1 .51.89 2.59 2.59 0 0 1 .16 1 2.42 2.42 0 0 1-.25 1 2.46 2.46 0 0 1-.77.93 5 5 0 0 1-1.38.73 3.35 3.35 0 0 1-2.51 0 2.56 2.56 0 0 1-1.44-1.53 2.52 2.52 0 0 1 .17-2.07 3.36 3.36 0 0 1 2-1.55 4.93 4.93 0 0 1 1.52-.3 2.58 2.58 0 0 1 1.19.23 2.62 2.62 0 0 1 .8.67zM6.73 35a1.39 1.39 0 0 0 .16-1.29 1.4 1.4 0 0 0-.92-.9 3 3 0 0 0-1.83.19 2.64 2.64 0 0 0-1.42 1 1.36 1.36 0 0 0-.16 1.26 1.4 1.4 0 0 0 .92.9A2.63 2.63 0 0 0 5.2 36a2.88 2.88 0 0 0 1.53-1zM4.3 28.4l-.24-1.12a2.44 2.44 0 0 0 1.17-.42 1.22 1.22 0 0 0 .36-1 1.59 1.59 0 0 0-.23-.86.73.73 0 0 0-.62-.32.74.74 0 0 0-.63.3 5.34 5.34 0 0 0-.55 1.36 3.28 3.28 0 0 1-.75 1.42 1.49 1.49 0 0 1-1.07.42 1.62 1.62 0 0 1-1.23-.56A2.14 2.14 0 0 1 0 26.07a2.62 2.62 0 0 1 .44-1.52 1.84 1.84 0 0 1 1.29-.77l.25 1a1.5 1.5 0 0 0-.73.42 1.22 1.22 0 0 0-.26.84 1.2 1.2 0 0 0 .21.77.64.64 0 0 0 .53.26.55.55 0 0 0 .49-.28 7.24 7.24 0 0 0 .53-1.31 4 4 0 0 1 .8-1.48 1.53 1.53 0 0 1 1.12-.39 1.7 1.7 0 0 1 1.33.61 2.42 2.42 0 0 1 .54 1.66A2.48 2.48 0 0 1 6 27.61a2.57 2.57 0 0 1-1.7.79zM7 20.88l-6-2 1.24-3.72.93.31-.91 2.71 1.54.51.83-2.47.89.3L4.7 19l1.68.56.91-2.72.93.32z"/></g><path d="M28.42 52.22a25.66 25.66 0 0 1-3.51-.22l.09-1a26.57 26.57 0 0 0 4.09.22 24.93 24.93 0 0 0 17.81-8.13l.73.67a25.86 25.86 0 0 1-18.51 8.46zM10.36 8.68L9.63 8a25.92 25.92 0 0 1 18.8-8 27.25 27.25 0 0 1 4.24.34l-.16 1A25.23 25.23 0 0 0 28.43 1a24.89 24.89 0 0 0-18.07 7.68z"/></symbol><symbol viewBox="0 0 57.1 52.34" id="circular-play" xmlns="http://www.w3.org/2000/svg"><path d="M39.72 7l3.62-5.16 2 1.44a2.25 2.25 0 0 1 1 1.33A1.89 1.89 0 0 1 46 6.1a1.88 1.88 0 0 1-1.3.85 2.27 2.27 0 0 1-1.59-.47l-1.19-.84-1.33 1.92zm2.77-2.11l1.17.82a1.14 1.14 0 0 0 .79.23.93.93 0 0 0 .67-.42.89.89 0 0 0 .18-.8 1.25 1.25 0 0 0-.5-.72l-1.16-.8zM45.31 11.57l5-3.81.64.85-4.23 3.21 1.6 2.11-.78.59zM50 20.38l.89-.71-.84-2.4h-1.11l-.35-1 6.7.06.28.81-5.19 4.23zm4-3.13h-3l.64 1.81 2.36-1.8zM50.67 24.6l2.66-.12 3.54-2.22.05 1.13L54.31 25l2.74 1.32.05 1.13-3.73-1.9-2.65.12zM4.85 18.31l-1-.31A26.06 26.06 0 0 1 28.72 0 27.25 27.25 0 0 1 33 .34l-.16 1a25.14 25.14 0 0 0-27.95 17z"/><g><path d="M17.41 45.4l-3.61 5.16-2.06-1.44a2.27 2.27 0 0 1-1-1.33 1.87 1.87 0 0 1 .35-1.53 1.85 1.85 0 0 1 1.3-.85 2.26 2.26 0 0 1 1.59.46l1.19.84 1.34-1.92zm-2.77 2.11l-1.17-.82a1.13 1.13 0 0 0-.79-.22.89.89 0 0 0-.67.41.94.94 0 0 0-.18.81 1.23 1.23 0 0 0 .5.64l1.16.82zM11.82 40.79l-5 3.81-.64-.84 4.22-3.23-1.6-2.1.78-.59zM7.08 32l-.89.71.81 2.38h1.17l.35 1L1.83 36l-.29-.82L6.73 31zm-3.94 3.12h2.93l-.63-1.81-2.3 1.79zM6.43 27.77l-2.65.12-3.54 2.22L.18 29l2.62-1.58-2.75-1.34L0 25l3.73 1.89 2.65-.12z"/></g><path d="M28.4 52.34a27.71 27.71 0 0 1-4.08-.34l.16-1a25.48 25.48 0 0 0 3.92.3 25.06 25.06 0 0 0 23.84-17.19l.95.32a26.07 26.07 0 0 1-24.77 17.91z"/></symbol><symbol viewBox="0 0 57 57" id="circular-reel" xmlns="http://www.w3.org/2000/svg"><path d="M40.7 10.2l1.8-6.4.9.7L42 9.2l4-2.9 1 .6-5.4 3.9-.9-.6zM45.2 14.2l4.9-4 .7.8-4.9 4-.7-.8zM47.8 17.8l5.8-2.5.8 1.9c.3.6.3 1.4.1 2-.1.4-.4.7-.7 1-.4.3-.8.6-1.2.8-.5.2-1 .3-1.5.4-.4 0-.8 0-1.2-.2-.3-.1-.6-.4-.8-.6l-.6-.9-.7-1.9zm1.3.6l.4.9c.2.4.5.8.9.9.6.1 1.2 0 1.7-.3.5-.2 1-.6 1.3-1 .2-.4.2-.9 0-1.3l-.4-.9-3.9 1.7zM50.2 25l6.3-.5.3 3.9-1 .1-.2-2.9-1.6.1.2 2.6-.9.1-.3-2.6-1.7.1.2 2.9-1 .1-.3-3.9zM49.5 35.2c0-.3 0-.7.1-1 .2-.7.6-1.3 1.2-1.6.4-.2.8-.3 1.2-.3.5 0 1 0 1.5.2.9.2 1.6.7 2.1 1.4.4.6.5 1.4.3 2.1-.2.7-.7 1.3-1.3 1.6-.8.4-1.7.4-2.5.2-.5-.1-1-.3-1.4-.6-.3-.2-.6-.5-.8-.9-.3-.4-.4-.8-.4-1.1zm1.8-1.8c-.7.3-1.1 1.2-.8 1.9 0 .1.1.2.2.3.4.5 1 .8 1.6.9.6.2 1.2.2 1.7 0 .4-.2.8-.5.8-1 .1-.4 0-.9-.2-1.2-.4-.5-.9-.8-1.5-.9-.5-.1-1.2-.2-1.8 0zM45.3 42.8l4.4 4.5-1.8 1.8c-.4.4-.9.7-1.5.7-.5 0-1.1-.2-1.4-.6-.3-.3-.5-.7-.6-1.1 0-.4.1-.8.3-1.2l-2.8-.9.8-.8 2.6.8.8-.8-1.7-1.7.9-.7zm1.5 3.1l-1 1c-.6.5-.6 1-.1 1.5s1 .5 1.5-.1l1-1-1.4-1.4zM39.5 47.6l2.7 5.7-3.5 1.7-.4-.9 2.6-1.2-.7-1.5-2.4 1.1-.4-.8 2.4-1.1L39 49l-2.6 1.2-.4-.9 3.5-1.7zM33 50.1l.8 6.3-3.9.5-.1-1 2.8-.3-.2-1.6-2.6.3-.1-.9 2.6-.3-.2-1.8-2.8.3-.1-1 3.8-.5zM26 50.4l-1.1 6.2-1-.2 1-5.2-2.6-.5.2-1 3.5.7zM13.5 49.9C1.7 41.6-1.2 25.3 7 13.5c4.9-7 12.9-11.2 21.4-11.2 1.4 0 2.8.1 4.2.3l-.2 1c-13.7-2.2-26.6 7-28.8 20.7C2 33.8 6.1 43.4 14 48.9l-.5 1z"/></symbol><symbol viewBox="0 0 305.53 305.53" id="close" xmlns="http://www.w3.org/2000/svg"><path d="M14.538-.001L305.54 291.002l-14.53 14.53L.006 14.53z" data-name="Layer 1"/><path d="M-.001 291.002L291.002 0l14.53 14.53L14.53 305.534z" data-name="Layer 1 copy"/></symbol><symbol viewBox="0 0 520.55 244" id="consulat_logo" xmlns="http://www.w3.org/2000/svg"><path d="M247.19 230.52a13.52 13.52 0 0 1 13.18-13.59c7.57-.11 14 6.06 14 13.38s-6.48 13.81-13.79 13.69a13.78 13.78 0 0 1-13.39-13.48zM260.89 108.8a13.25 13.25 0 0 1 13.48 13.1 13.49 13.49 0 0 1-13.79 13.45 13.32 13.32 0 0 1-13.4-13.25c-.03-7.61 5.88-13.35 13.71-13.3zM260.93 0c7.29.1 13.73 6.78 13.45 14s-6.86 13.3-13.83 13.14a14 14 0 0 1-13.36-13.54A13.65 13.65 0 0 1 260.93 0zM507.73 108.8a12.84 12.84 0 0 1 12.81 13.56c-.22 7.74-6.13 13.21-14 13a13.58 13.58 0 0 1-13-13.69c.25-7.67 6.13-13.03 14.19-12.87zM144.6 65.39c-.15 7.61-6.23 13.2-14.06 13a13.42 13.42 0 1 1 14.06-13zM131.08 165.81c7.66-.06 13.38 5.4 13.52 12.89a13 13 0 0 1-13.26 13.7 13.19 13.19 0 0 1-13.57-13c-.19-7.82 5.4-13.54 13.31-13.59zM404.61 64.83A13.31 13.31 0 1 1 378 65c0-7.9 5.67-13.63 13.4-13.53a13.12 13.12 0 0 1 13.21 13.36zM26.61 122a12.93 12.93 0 0 1-13 13.38C5.69 135.47 0 129.92 0 122.07s5.18-13.17 13-13.27c8-.1 13.58 5.32 13.61 13.2zM391.23 192.4A12.86 12.86 0 0 1 378 179.26c-.07-8.07 5.23-13.46 13.27-13.45 7.84 0 13.44 5.69 13.34 13.54a13 13 0 0 1-13.38 13.05z"/></symbol><symbol viewBox="0 0 14.19 68.99" id="i" xmlns="http://www.w3.org/2000/svg"><path d="M7.05 0a7.14 7.14 0 0 1 7.14 7.14 7.06 7.06 0 0 1-7.14 7.05 7 7 0 0 1-7-7 7.13 7.13 0 0 1 7-7.19zM1.69 69V23.22H12.5V69z"/></symbol></svg>